<?xml version="1.0" encoding="iso-8859-1"?>
<!-- Generator: Adobe Illustrator 21.0.0, SVG Export Plug-In . SVG Version: 6.00 Build 0)  -->
<svg width="80" height="80" version="1.1" id="Capa_1" xmlns="http://www.w3.org/2000/svg" xmlns:xlink="http://www.w3.org/1999/xlink" x="0px" y="0px"
	 viewBox="0 0 512 512" style="enable-background:new 0 0 512 512;" xml:space="preserve">
<g>
	<g>
		<path d="M425.625,419.524c-0.538-4.169-4.342-7.101-8.511-6.584c-4.169,0.538-7.121,4.352-6.584,8.521
			c1.103,8.564,0.451,10.613,0.639,64.296c0,6.077-4.951,11.027-11.017,11.027H379.33v-57.66c0-4.203-3.405-7.608-7.608-7.608
			h-70.598c-4.203,0-7.608,3.405-7.608,7.608v57.66H263.6v-69.615l58.683-19.992c0.749-0.256,1.451-0.625,2.083-1.094l25.707,6.333
			c4.6,1.134,9.325-0.217,12.63-3.617c3.305-3.4,4.522-8.159,3.256-12.729c-0.145-0.522-0.345-1.028-0.596-1.506l-21.393-40.725
			c24.902,3.572,46.49,18.796,58.282,41.308c1.359,2.597,4.007,4.088,6.756,4.088c5.611,0,9.409-6.019,6.726-11.149
			c-14.791-28.252-42.536-46.898-74.156-49.86c-7.388-0.739-10.17-0.33-35.881-0.446c-2.272,0-4.108-1.846-4.108-4.109v-32.533
			c26.72-13.462,45.883-37.819,52.954-66.122c16.667-4.017,29.084-19.041,29.084-36.916c0-16.789-10.936-31.062-26.071-36.064
			v-15.673c16.982-3.175,29.794-16.86,29.794-33.193v-94.08c0-14.397-15.512-23.753-28.384-16.677
			c-40.257,22.131-115.793,24.546-161.236,21.699c-21.123-1.328-40.83,9.141-54.81,25.807
			c-11.626,13.857-18.301,30.92-18.301,46.786v23.931c0,12.539,11.088,22.734,24.722,22.734c0.355,0,0.71-0.02,1.065-0.071
			l0.568-0.081v18.818c-15.125,5.001-26.071,19.274-26.071,36.064c0,17.864,12.407,32.888,29.054,36.916
			c2.942,11.788,8.004,22.987,15.054,33.152c10.52,15.146,24.752,27.045,41.359,34.643v30.859c0,1.849-1.084,3.522-3.632,4.088
			c-0.956,0.087-6.401-0.037-27.42,0.02h-0.01c-24.418,0-47.537,9.353-65.117,26.345c-3.023,2.922-3.104,7.74-0.183,10.753
			c2.908,3.027,7.742,3.1,10.753,0.193c11.788-11.39,26.555-18.673,42.475-21.134l-20.633,40.725
			c-0.228,0.45-0.411,0.922-0.546,1.41c-1.264,4.57-0.047,9.328,3.259,12.728c3.305,3.399,8.024,4.753,12.628,3.617l25.707-6.333
			c0.632,0.469,1.333,0.838,2.083,1.094l58.65,19.98v69.627H111.836c-6.076,0-11.027-4.951-11.027-11.027v-54.232
			c0-11.96,2.617-23.434,7.76-34.096c1.836-3.784,0.243-8.339-3.54-10.165c-3.784-1.826-8.329-0.243-10.155,3.54
			c-6.158,12.752-9.282,26.447-9.282,40.72v54.232c0,14.466,11.768,26.244,26.244,26.244h288.316
			c14.466,0,26.234-11.778,26.234-26.244C426.167,432.164,426.917,429.604,425.625,419.524z M330.348,360.629l18.86,35.904
			l-22.212-5.473c-3.807-0.939-7.839-0.109-10.96,2.17l-30.163,10.275L330.348,360.629z M357.312,217.629
			c0.416-5.977,0.174-8.021,0.243-38.924C372.174,187.737,371.945,208.871,357.312,217.629z M140.119,198.1
			c0-8.187,4.342-15.379,10.855-19.396c0.07,31.574-0.17,32.987,0.243,38.934C144.572,213.652,140.119,206.388,140.119,198.1z
			 M195.98,393.23c-3.12-2.277-7.152-3.11-10.961-2.17l-22.321,5.499l19.152-37.801l45.411,45.128L195.98,393.23z M197.632,352.988
			c9.318,0.019,9.946,0.107,12.27-0.347c9.089-1.704,15.683-9.688,15.683-18.97V297.79c0-3.124-1.897-5.924-4.798-7.081
			c-25.584-10.155-44.595-32.117-51.625-57.965c-3.879-14.238-2.972-18.494-2.972-91.675l97.671-13.817
			c4.159-0.588,7.06-4.443,6.472-8.602c-0.588-4.159-4.453-7.061-8.603-6.462c-32.653,4.618-50.156,7.093-58.814,8.317
			c8.296-1.174,12.882-1.823-54.043,7.64c-4.951-0.193-9.039-3.551-9.039-7.507V96.707c0-24.002,21.871-54.273,50.063-57.326
			c6.318-0.692,116.769,9.16,176.402-23.637c2.655-1.457,5.833,0.353,5.833,3.348v94.08c0,13.652-15.886,21.421-29.794,17.875
			c-9.089-2.333-15.724-9.465-15.724-17.875v-9.516c0-8.729-10.703-13.274-17.357-7.456c-4.362,3.835-10.784,7.162-19.102,9.871
			c-3.997,1.309-6.178,5.61-4.869,9.597c1.309,3.997,5.59,6.178,9.597,4.869c6.391-2.08,11.869-4.474,16.515-7.223
			c0.081,16.647,13.441,30.494,30.941,33.254c0,66.15,0.957,71.771-2.932,86.238c-6.665,24.763-24.266,45.792-48.521,56.565
			c-2.749,1.217-4.514,3.946-4.514,6.949v37.352c0,10.662,8.663,19.325,19.285,19.325c4.111,0.018,7.622,0.024,10.661,0.023
			l-60.228,58.061L197.632,352.988z M364.114,495.966h-55.382v-22.972h55.382V495.966z M364.114,457.777h-55.382v-11.045h55.382
			V457.777z"/>
	</g>
</g>
<g>
	<g>
		<circle cx="207.778" cy="179.71" r="10.997"/>
	</g>
</g>
<g>
	<g>
		<circle cx="300.519" cy="179.71" r="10.997"/>
	</g>
</g>
<g>
	<g>
		<path d="M281.789,218.775c-4.203,0-7.608,3.405-7.608,7.608c0,10.556-8.589,19.146-19.146,19.146
			c-10.556,0-19.146-8.589-19.146-19.146c0-4.203-3.406-7.608-7.608-7.608c-4.203,0-7.608,3.405-7.608,7.608
			c0,18.948,15.414,34.362,34.362,34.362s34.362-15.415,34.362-34.362C289.398,222.18,285.992,218.775,281.789,218.775z"/>
	</g>
</g>
<g>
	<g>
		<circle cx="237.836" cy="445.89" r="7.602"/>
	</g>
</g>
<g>
	<g>
		<circle cx="237.836" cy="484.145" r="7.602"/>
	</g>
</g>
<g>
</g>
<g>
</g>
<g>
</g>
<g>
</g>
<g>
</g>
<g>
</g>
<g>
</g>
<g>
</g>
<g>
</g>
<g>
</g>
<g>
</g>
<g>
</g>
<g>
</g>
<g>
</g>
<g>
</g>
</svg>
