<?xml version="1.0" encoding="utf-8"?>
<!-- Generator: Adobe Illustrator 16.0.0, SVG Export Plug-In . SVG Version: 6.00 Build 0)  -->
<!DOCTYPE svg PUBLIC "-//W3C//DTD SVG 1.1//EN" "http://www.w3.org/Graphics/SVG/1.1/DTD/svg11.dtd">
<svg version="1.1" id="Слой_1" xmlns="http://www.w3.org/2000/svg" xmlns:xlink="http://www.w3.org/1999/xlink" x="0px" y="0px"
	 width="500px" height="260.423px" viewBox="0 0 500 260.423" enable-background="new 0 0 500 260.423" xml:space="preserve">
<g>
	<g>
		<path fill="#FFFFFF" d="M291.466,168.577c1.038-0.604,2.023-1.255,2.955-1.954l0.245-0.221v0.038
			c1.722-1.321,3.26-2.807,4.615-4.457c3.918-4.782,7.387-12.818,10.406-24.111l7.903-29.422l-9.155,1.71
			c-0.874,0.163-1.566,0.228-2.087,0.189c-0.895,0.3-1.988,0.573-3.28,0.814l-13.846,2.587l-9.22,32.109
			c-1.06,3.604-1.862,6.677-2.345,9.241c-0.514,2.568-0.771,4.64-0.771,6.215c0,3.565,1.699,6.048,5.107,7.431
			C284.543,169.781,288.068,170.158,291.466,168.577L291.466,168.577z M412.355,126.625c-6.713,13.171-13.362,23.121-19.948,29.875
			c-6.585,6.756-13.621,10.834-21.169,12.244c-3.566,0.666-6.683,0.735-9.349,0.237c-2.665-0.499-4.752-1.585-6.263-3.263
			c-3.115,2.285-6.708,4.256-10.729,5.923c-0.309,0.129-0.623,0.253-0.941,0.372c-11.776,5.071-27.377,6.182-36.453-3.342
			c-4.016,4.218-8.456,7.766-13.299,10.676l-0.166,0.099l0,0l-0.006,0.002c-3.15,1.869-6.261,3.047-9.446,3.973
			c-9.955,3.322-19.876,3.448-26.621-5.494c-4.015,4.219-8.449,7.778-13.298,10.677c-3.312,2-6.683,3.593-10.104,4.785l-2.685,1.009
			c-8.812,3.313-24.31,1.732-32.38-3.362c-6.071,4.025-12.175,7.381-18.311,10.102c-6.104,2.714-12.271,4.767-18.502,6.189
			l0.025-0.092l-1.248,0.233c-8.475,1.583-20.834,2.697-23.79-7.817c-1.785-14.001,11.907-47.561,16.127-59.935l-29.968,6.665
			c-7.703,21.88-17.297,43.241-19.59,70.943c-30.986-7.252-8.409-46.116-3.353-66.619c-41.18,7.757-23.018,4.497-26.658,5.177
			c-2.159,0.404-3.623,0.438-4.418,0.021c-0.76-0.398-1.155-1.29-1.155-2.646c0-0.202,0.001-0.454,0.051-0.762
			c0.048-0.31,0.249-0.903,0.552-1.86l2.36-7.471c0.613-1.943,1.551-3.463,3.012-4.428c1.398-0.925,4.217-1.794,8.435-2.582
			c9.07-1.694,17.129-3.203,24.323-4.55l0.069-0.098c7.618-17.746,14.023-35.887,19.832-56.33
			c-28.328,3.025-84.055,32.984-103.728,59.546c-5.85,7.902-12.66,22.166-9.604,30.734c5.664,15.886,27.049,7.628,36.497-1.919
			c1.101,10.708,0.276,20.348-5.762,23.053c-18.277,7.429-41.152-10.337-44.18-26.895C-8.754,109.023,110.102,42.625,143.265,50.816
			c3.946,0.974,6.387,3.884,7.504,7.858c1.68,13.173-16.102,57.156-19.636,68.366c9.796-1.712,19.149-2.934,29.152-4.542
			c2.625-7.722,6.785-16.714,9.385-24.444c2.779-8.263,3.923-12.708,9.77-13.798c4.143-0.775,7.355-0.861,9.701-0.271
			c2.313,0.627,3.47,1.857,3.47,3.751c0,1.253-0.707,3.796-2.153,7.63c-11.214,29.722-25.589,67.501-31.796,97.564
			c1.866,1.617,5.614,1.313,8.044,0.905c4.216-1.113,8.154-2.422,11.75-3.979c3.662-1.552,7.228-3.406,10.696-5.563
			c-2.376-2.705-4.143-5.939-5.268-9.746c-1.124-3.806-1.702-8.387-1.702-13.784c0-12.56,4.272-24.282,12.849-35.166
			c8.578-10.886,18.665-17.397,30.357-19.582c6.521-1.218,11.692-0.226,15.483,2.985c3.791,3.21,5.686,8.22,5.686,14.967
			c0,7.419-2.699,16.083-8.127,26.027c-5.428,9.976-12.655,19.197-21.715,27.732c2.634,1.95,5.526,3.145,8.61,3.628
			c2.456,0.351,5.35,0.3,8.668-0.148c6.714-2.011,11.953-5.344,15.748-9.97c3.919-4.782,7.386-12.818,10.407-24.111l7.902-29.424
			l-9.155,1.711c-1.381,0.258-2.313,0.271-2.826,0.013c-0.483-0.262-0.74-0.824-0.74-1.691c0-0.128,0-0.289,0.033-0.487
			c0.032-0.199,0.159-0.577,0.353-1.192l1.51-4.777c0.353-1.255,0.995-2.209,1.926-2.834c0.9-0.585,2.7-1.147,5.398-1.651
			l6.97-1.304l9.22-32.207c0.514-1.735,1.125-4.096,1.797-7.114c1.961-8.525,5.849-13.332,11.695-14.423
			c4.143-0.774,7.356-0.862,9.701-0.271c2.312,0.627,3.469,1.857,3.469,3.752c0,1.253-0.707,3.794-2.152,7.63
			c-0.772,2.04-1.317,3.651-1.703,4.847l-10.826,33.825l15.806-2.952c0.751-0.142,1.387-0.196,1.914-0.158
			c0.941-0.307,2.158-0.602,3.647-0.881l6.97-1.303l9.219-32.208c0.514-1.733,1.125-4.097,1.798-7.114
			c1.96-8.525,5.848-13.332,11.695-14.424c4.144-0.773,7.355-0.86,9.701-0.271c2.312,0.628,3.468,1.858,3.468,3.753
			c0,1.252-0.706,3.794-2.151,7.63c-0.77,2.039-1.317,3.651-1.701,4.848l-10.825,33.823l15.802-2.952
			c1.189-0.221,2.089-0.229,2.731,0.004c0.611,0.24,0.931,0.726,0.931,1.464c0,0.321,0,0.61-0.033,0.873
			c-0.031,0.231-0.094,0.501-0.158,0.77l-1.607,4.829c-0.353,1.254-1.061,2.222-2.056,2.923c-0.998,0.667-2.762,1.254-5.268,1.723
			l-13.846,2.587l-9.22,32.11c-1.059,3.602-1.862,6.677-2.343,9.239c-0.514,2.57-0.772,4.642-0.772,6.215
			c0,3.565,1.703,6.042,5.108,7.431l0.205,0.079c1.838,0.705,4.15,1.089,6.941,1.156c2.046-0.132,3.762-0.681,5.129-1.28
			c2.723-1.199,5.202-2.611,7.388-4.271c-0.226-1.277-0.417-2.621-0.547-3.978c-0.127-1.39-0.192-2.92-0.192-4.557
			c0-5.205,1.124-11.102,3.374-17.688c2.281-6.626,5.429-13.286,9.508-20.023c6.296-10.202,13.235-18.375,20.847-24.551
			c7.646-6.149,15.517-9.997,23.674-11.522c4.081-0.762,7.583-0.807,10.536-0.17c2.956,0.637,5.751,2.009,8.385,4.152l1.317-4.455
			c0.804-2.719,1.64-4.514,2.44-5.371c0.805-0.825,1.993-1.399,3.566-1.693c4.338-0.811,8.127-0.78,11.34,0.098
			c3.245,0.871,4.852,2.306,4.852,4.298c0,0.642-1.351,3.848-4.049,9.622c-2.699,5.771-5.074,11.228-7.13,16.398
			c-4.146,10.218-7.261,18.928-9.38,26.07c-2.09,7.135-3.15,12.505-3.15,16.167c0,2.504,0.773,4.094,2.347,4.766
			c1.574,0.669,5.14,0.741,10.728,0.212c-2.437,8.86-18.538,16.928-26.147,14.394c-4.015-1.305-6.038-4.431-6.038-9.408
			c0-2.187,0.384-4.956,1.123-8.306C409.368,136.306,410.622,131.96,412.355,126.625L412.355,126.625z M421.961,89.142
			c-1.672-1.005-3.372-1.651-5.011-1.987c-1.671-0.298-3.341-0.307-5.044,0.01c-3.695,0.692-7.934,3.089-12.752,7.17
			c-4.787,4.107-9.38,9.333-13.781,15.681c-4.016,5.826-7.194,11.784-9.541,17.909c-2.347,6.123-3.533,11.325-3.533,15.597
			c0,3.053,0.545,5.231,1.605,6.509c1.059,1.28,2.698,1.713,4.883,1.305c6.135-1.148,12.881-7,20.237-17.531
			C406.349,123.282,413.995,108.395,421.961,89.142L421.961,89.142z M209.2,169.337c6.521-5.458,12.014-12.233,16.479-20.329
			c4.464-8.094,6.682-14.803,6.682-20.2c0-2.699-0.676-4.628-1.991-5.795c-1.318-1.168-3.213-1.521-5.718-1.051
			c-5.237,0.978-9.83,4.888-13.845,11.772c-4.017,6.854-6.04,14.333-6.04,22.427c0,3.084,0.353,5.652,1.028,7.775
			C206.501,166.019,207.625,167.834,209.2,169.337L209.2,169.337z"/>
		<path fill-rule="evenodd" clip-rule="evenodd" fill="#FFFFFF" d="M122.357,236.879l309.748-69.501
			c28.423-7.71,54.596-31.938,61.104-58.712c3.023-12.438,2.681-25.556-1.556-38.108c-4.241-12.578-12.403-24.611-25.007-34.862
			C429.327,5.347,353.422-9.336,225.454,23.013l-1.166-4.663C353.979-14.434,431.341,0.801,469.671,31.975
			c13.347,10.855,22.008,23.652,26.531,37.06c4.533,13.433,4.903,27.461,1.668,40.761c-11.896,48.936-65.546,62.9-65.547,62.906
			L100.03,260.222C102.398,248.834,109.194,239.94,122.357,236.879L122.357,236.879z"/>
		<polygon fill-rule="evenodd" clip-rule="evenodd" fill="#FFFFFF" points="194.193,8.526 200.352,24.221 217.182,25.228 
			204.159,35.936 208.4,52.255 194.193,43.179 179.984,52.255 184.227,35.937 171.203,25.228 188.032,24.221 194.193,8.526 		"/>
	</g>
	<g>
		<path fill="#FFFFFF" d="M483.295,0v2.159h-4.177v10.899h-2.595V2.159h-4.129V0H483.295z M497.409,13.058l-0.481-7.682
			c-0.046-1.008-0.046-2.257-0.097-3.648h-0.142c-0.338,1.154-0.771,2.689-1.107,3.889l-2.352,7.25h-2.687l-2.354-7.443
			c-0.241-0.96-0.624-2.542-0.913-3.696h-0.142c0,1.2-0.051,2.45-0.099,3.648l-0.479,7.682h-2.494L485.022,0h3.888l2.257,6.384
			c0.334,1.009,0.526,1.969,0.861,3.312h0.053c0.333-1.151,0.62-2.302,0.91-3.215L495.247,0h3.744L500,13.058H497.409z"/>
	</g>
</g>
</svg>
